<?xml version="1.0" encoding="UTF-8"?><svg xmlns="http://www.w3.org/2000/svg" xmlns:xlink="http://www.w3.org/1999/xlink" fill-opacity="1" color-rendering="auto" color-interpolation="auto" text-rendering="auto" stroke="black" stroke-linecap="square" width="1802" stroke-miterlimit="10" shape-rendering="auto" stroke-opacity="1" fill="black" stroke-dasharray="none" font-weight="normal" stroke-width="1" height="2447" font-family="'Dialog'" font-style="normal" stroke-linejoin="miter" font-size="12px" stroke-dashoffset="0" image-rendering="auto">
  <!--Generated by ySVG 2.6-->
  <defs id="genericDefs"/>
  <g>
    <defs id="defs1">
      <clipPath clipPathUnits="userSpaceOnUse" id="clipPath1">
        <path d="M0 0 L1802 0 L1802 2447 L0 2447 L0 0 Z"/>
      </clipPath>
      <clipPath clipPathUnits="userSpaceOnUse" id="clipPath2">
        <path d="M-688 -491 L1114 -491 L1114 1956 L-688 1956 L-688 -491 Z"/>
      </clipPath>
    </defs>
    <g fill="white" text-rendering="geometricPrecision" shape-rendering="geometricPrecision" transform="translate(688,491)" stroke="white">
      <rect x="-688" width="1802" height="2447" y="-491" clip-path="url(#clipPath2)" stroke="none"/>
    </g>
    <g fill="rgb(255,204,0)" text-rendering="geometricPrecision" shape-rendering="geometricPrecision" transform="matrix(1,0,0,1,688,491)" stroke="rgb(255,204,0)">
      <rect x="303.9863" y="-305.2945" clip-path="url(#clipPath2)" width="226.0273" rx="4" ry="4" height="76.2945" stroke="none"/>
    </g>
    <g text-rendering="geometricPrecision" stroke-miterlimit="1.45" shape-rendering="geometricPrecision" transform="matrix(1,0,0,1,688,491)" stroke-linecap="butt">
      <rect x="303.9863" y="-305.2945" clip-path="url(#clipPath2)" fill="none" width="226.0273" rx="4" ry="4" height="76.2945"/>
      <text x="342.2461" xml:space="preserve" y="-283.8113" clip-path="url(#clipPath2)" font-family="sans-serif" stroke="none">CHECK notes on alternate</text>
      <text x="327.5449" xml:space="preserve" y="-269.6785" clip-path="url(#clipPath2)" font-family="sans-serif" stroke="none">transfers on the selected train!</text>
      <text x="322.834" xml:space="preserve" y="-255.5457" clip-path="url(#clipPath2)" font-family="sans-serif" stroke="none">They are directly visible only on </text>
      <text x="333.7559" xml:space="preserve" y="-241.4129" clip-path="url(#clipPath2)" font-family="sans-serif" stroke="none">the website, NOT in the app!</text>
    </g>
    <g fill="rgb(255,204,0)" text-rendering="geometricPrecision" shape-rendering="geometricPrecision" transform="matrix(1,0,0,1,688,491)" stroke="rgb(255,204,0)">
      <path d="M331.1094 239 L417 165 L502.8906 239 L417 313 Z" fill-rule="evenodd" clip-path="url(#clipPath2)" stroke="none"/>
    </g>
    <g text-rendering="geometricPrecision" stroke-miterlimit="1.45" shape-rendering="geometricPrecision" transform="matrix(1,0,0,1,688,491)" stroke-linecap="butt">
      <path fill="none" d="M331.1094 239 L417 165 L502.8906 239 L417 313 Z" fill-rule="evenodd" clip-path="url(#clipPath2)"/>
      <text x="372.1992" xml:space="preserve" y="222.3359" clip-path="url(#clipPath2)" font-family="sans-serif" stroke="none">Is it a workday?</text>
      <text x="389.6426" xml:space="preserve" y="236.4688" clip-path="url(#clipPath2)" font-family="sans-serif" stroke="none">(Mon-Fri)</text>
      <text x="363.0645" xml:space="preserve" y="250.6016" clip-path="url(#clipPath2)" font-family="sans-serif" stroke="none">And not a holiday?</text>
      <text x="381.8701" xml:space="preserve" y="264.7344" clip-path="url(#clipPath2)" font-family="sans-serif" stroke="none">(in Slovenia)</text>
    </g>
    <g fill="rgb(255,204,0)" text-rendering="geometricPrecision" shape-rendering="geometricPrecision" transform="matrix(1,0,0,1,688,491)" stroke="rgb(255,204,0)">
      <rect x="627.8184" width="149.3633" height="62" y="436" clip-path="url(#clipPath2)" stroke="none"/>
    </g>
    <g text-rendering="geometricPrecision" stroke-miterlimit="1.45" shape-rendering="geometricPrecision" transform="matrix(1,0,0,1,688,491)" stroke-linecap="butt">
      <rect fill="none" x="627.8184" width="149.3633" height="62" y="436" clip-path="url(#clipPath2)"/>
      <text x="646.5195" xml:space="preserve" y="450.3359" clip-path="url(#clipPath2)" font-family="sans-serif" stroke="none">Buy a ticket on the </text>
      <text x="627.7227" xml:space="preserve" y="464.4688" clip-path="url(#clipPath2)" font-family="sans-serif" stroke="none">train (because discounts).</text>
      <text x="643.1299" xml:space="preserve" y="478.6016" clip-path="url(#clipPath2)" font-family="sans-serif" stroke="none">Also, surcharges are</text>
      <text x="652.1152" xml:space="preserve" y="492.7344" clip-path="url(#clipPath2)" font-family="sans-serif" stroke="none">paid on the train.</text>
    </g>
    <g fill="rgb(255,204,0)" text-rendering="geometricPrecision" shape-rendering="geometricPrecision" transform="matrix(1,0,0,1,688,491)" stroke="rgb(255,204,0)">
      <path d="M331.1094 1173.5 L417 1099.5 L502.8906 1173.5 L417 1247.5 Z" fill-rule="evenodd" clip-path="url(#clipPath2)" stroke="none"/>
    </g>
    <g text-rendering="geometricPrecision" stroke-miterlimit="1.45" shape-rendering="geometricPrecision" transform="matrix(1,0,0,1,688,491)" stroke-linecap="butt">
      <path fill="none" d="M331.1094 1173.5 L417 1099.5 L502.8906 1173.5 L417 1247.5 Z" fill-rule="evenodd" clip-path="url(#clipPath2)"/>
      <text x="358.8867" xml:space="preserve" y="1170.9688" clip-path="url(#clipPath2)" font-family="sans-serif" stroke="none">Is your ticket visible</text>
      <text x="385.0371" xml:space="preserve" y="1185.1016" clip-path="url(#clipPath2)" font-family="sans-serif" stroke="none">in the app?</text>
    </g>
    <g fill="rgb(255,204,0)" text-rendering="geometricPrecision" shape-rendering="geometricPrecision" transform="matrix(1,0,0,1,688,491)" stroke="rgb(255,204,0)">
      <rect x="303.9863" y="1894" clip-path="url(#clipPath2)" width="226.0273" rx="4" ry="4" height="47" stroke="none"/>
    </g>
    <g text-rendering="geometricPrecision" stroke-miterlimit="1.45" shape-rendering="geometricPrecision" transform="matrix(1,0,0,1,688,491)" stroke-linecap="butt">
      <rect x="303.9863" y="1894" clip-path="url(#clipPath2)" fill="none" width="226.0273" rx="4" ry="4" height="47"/>
      <text x="351.4541" xml:space="preserve" y="1914.9688" clip-path="url(#clipPath2)" font-family="sans-serif" stroke="none">Enjoy the adventure of</text>
      <text x="315.7588" xml:space="preserve" y="1929.1016" clip-path="url(#clipPath2)" font-family="sans-serif" stroke="none">travelling with Slovenske Železnice</text>
    </g>
    <g fill="rgb(255,204,0)" text-rendering="geometricPrecision" shape-rendering="geometricPrecision" transform="matrix(1,0,0,1,688,491)" stroke="rgb(255,204,0)">
      <rect x="-16.9727" width="211.9453" height="62" y="1142.5" clip-path="url(#clipPath2)" stroke="none"/>
    </g>
    <g text-rendering="geometricPrecision" stroke-miterlimit="1.45" shape-rendering="geometricPrecision" transform="matrix(1,0,0,1,688,491)" stroke-linecap="butt">
      <rect fill="none" x="-16.9727" width="211.9453" height="62" y="1142.5" clip-path="url(#clipPath2)"/>
      <text x="-8.0225" xml:space="preserve" y="1163.9023" clip-path="url(#clipPath2)" font-family="sans-serif" stroke="none">Take a receipt from the bank and</text>
      <text x="59.4951" xml:space="preserve" y="1178.0352" clip-path="url(#clipPath2)" font-family="sans-serif" stroke="none">send it to:</text>
      <text x="-10.999" xml:space="preserve" y="1192.168" clip-path="url(#clipPath2)" font-family="sans-serif" stroke="none">pritozbe.pohvale@slo-zeleznice.si</text>
    </g>
    <g fill="rgb(255,204,0)" text-rendering="geometricPrecision" shape-rendering="geometricPrecision" transform="matrix(1,0,0,1,688,491)" stroke="rgb(255,204,0)">
      <rect x="-16.9727" width="211.9453" height="62" y="1393" clip-path="url(#clipPath2)" stroke="none"/>
    </g>
    <g text-rendering="geometricPrecision" stroke-miterlimit="1.45" shape-rendering="geometricPrecision" transform="matrix(1,0,0,1,688,491)" stroke-linecap="butt">
      <rect fill="none" x="-16.9727" width="211.9453" height="62" y="1393" clip-path="url(#clipPath2)"/>
      <text x="10.7246" xml:space="preserve" y="1428.5352" clip-path="url(#clipPath2)" font-family="sans-serif" stroke="none">Buy a ticket at the counter.</text>
    </g>
    <g fill="rgb(255,204,0)" text-rendering="geometricPrecision" shape-rendering="geometricPrecision" transform="matrix(1,0,0,1,688,491)" stroke="rgb(255,204,0)">
      <path d="M616.6094 945.5 L702.5 871.5 L788.3906 945.5 L702.5 1019.5 Z" fill-rule="evenodd" clip-path="url(#clipPath2)" stroke="none"/>
    </g>
    <g text-rendering="geometricPrecision" stroke-miterlimit="1.45" shape-rendering="geometricPrecision" transform="matrix(1,0,0,1,688,491)" stroke-linecap="butt">
      <path fill="none" d="M616.6094 945.5 L702.5 871.5 L788.3906 945.5 L702.5 1019.5 Z" fill-rule="evenodd" clip-path="url(#clipPath2)"/>
      <text x="656.3164" xml:space="preserve" y="928.8359" clip-path="url(#clipPath2)" font-family="sans-serif" stroke="none">If CASH: Do you</text>
      <text x="661.7686" xml:space="preserve" y="942.9688" clip-path="url(#clipPath2)" font-family="sans-serif" stroke="none">have change? </text>
      <text x="645.1396" xml:space="preserve" y="957.1016" clip-path="url(#clipPath2)" font-family="sans-serif" stroke="none">Because conducters</text>
      <text x="644.9639" xml:space="preserve" y="971.2344" clip-path="url(#clipPath2)" font-family="sans-serif" stroke="none">typically have none.</text>
    </g>
    <g fill="rgb(255,204,0)" text-rendering="geometricPrecision" shape-rendering="geometricPrecision" transform="matrix(1,0,0,1,688,491)" stroke="rgb(255,204,0)">
      <path d="M616.6094 695 L702.5 621 L788.3906 695 L702.5 769 Z" fill-rule="evenodd" clip-path="url(#clipPath2)" stroke="none"/>
    </g>
    <g text-rendering="geometricPrecision" stroke-miterlimit="1.45" shape-rendering="geometricPrecision" transform="matrix(1,0,0,1,688,491)" stroke-linecap="butt">
      <path fill="none" d="M616.6094 695 L702.5 621 L788.3906 695 L702.5 769 Z" fill-rule="evenodd" clip-path="url(#clipPath2)"/>
      <text x="638.7266" xml:space="preserve" y="692.4688" clip-path="url(#clipPath2)" font-family="sans-serif" stroke="none">Do you have CASH or </text>
      <text x="644.5303" xml:space="preserve" y="706.6016" clip-path="url(#clipPath2)" font-family="sans-serif" stroke="none">money on IJPP card?</text>
    </g>
    <g fill="rgb(255,204,0)" text-rendering="geometricPrecision" shape-rendering="geometricPrecision" transform="matrix(1,0,0,1,688,491)" stroke="rgb(255,204,0)">
      <rect x="902.1094" width="196.0742" height="62" y="664" clip-path="url(#clipPath2)" stroke="none"/>
    </g>
    <g text-rendering="geometricPrecision" stroke-miterlimit="1.45" shape-rendering="geometricPrecision" transform="matrix(1,0,0,1,688,491)" stroke-linecap="butt">
      <rect fill="none" x="902.1094" width="196.0742" height="62" y="664" clip-path="url(#clipPath2)"/>
      <text x="934.1729" xml:space="preserve" y="685.4023" clip-path="url(#clipPath2)" font-family="sans-serif" stroke="none">Get CASH somewhere/</text>
      <text x="937.4863" xml:space="preserve" y="699.5352" clip-path="url(#clipPath2)" font-family="sans-serif" stroke="none">put cash on IJPP card </text>
      <text x="955.3311" xml:space="preserve" y="713.668" clip-path="url(#clipPath2)" font-family="sans-serif" stroke="none">(at the counter)</text>
    </g>
    <g fill="rgb(255,204,0)" text-rendering="geometricPrecision" shape-rendering="geometricPrecision" transform="matrix(1,0,0,1,688,491)" stroke="rgb(255,204,0)">
      <path d="M331.1094 1674.5 L417 1600.5 L502.8906 1674.5 L417 1748.5 Z" fill-rule="evenodd" clip-path="url(#clipPath2)" stroke="none"/>
    </g>
    <g text-rendering="geometricPrecision" stroke-miterlimit="1.45" shape-rendering="geometricPrecision" transform="matrix(1,0,0,1,688,491)" stroke-linecap="butt">
      <path fill="none" d="M331.1094 1674.5 L417 1600.5 L502.8906 1674.5 L417 1748.5 Z" fill-rule="evenodd" clip-path="url(#clipPath2)"/>
      <text x="360.1758" xml:space="preserve" y="1671.9688" clip-path="url(#clipPath2)" font-family="sans-serif" stroke="none">Did you buy an ICS </text>
      <text x="371.3291" xml:space="preserve" y="1686.1016" clip-path="url(#clipPath2)" font-family="sans-serif" stroke="none">two-way ticket?</text>
    </g>
    <g fill="rgb(255,204,0)" text-rendering="geometricPrecision" shape-rendering="geometricPrecision" transform="matrix(1,0,0,1,688,491)" stroke="rgb(255,204,0)">
      <path d="M331.1094 -32 L417 -106 L502.8906 -32 L417 42 Z" fill-rule="evenodd" clip-path="url(#clipPath2)" stroke="none"/>
    </g>
    <g text-rendering="geometricPrecision" stroke-miterlimit="1.45" shape-rendering="geometricPrecision" transform="matrix(1,0,0,1,688,491)" stroke-linecap="butt">
      <path fill="none" d="M331.1094 -32 L417 -106 L502.8906 -32 L417 42 Z" fill-rule="evenodd" clip-path="url(#clipPath2)"/>
      <text x="362.2295" xml:space="preserve" y="-34.5312" clip-path="url(#clipPath2)" font-family="sans-serif" stroke="none">You want to travel </text>
      <text x="372.9873" xml:space="preserve" y="-20.3984" clip-path="url(#clipPath2)" font-family="sans-serif" stroke="none">with your bike?</text>
    </g>
    <g fill="rgb(255,204,0)" text-rendering="geometricPrecision" shape-rendering="geometricPrecision" transform="matrix(1,0,0,1,688,491)" stroke="rgb(255,204,0)">
      <path d="M3.1094 -32 L89 -106 L174.8906 -32 L89 42 Z" fill-rule="evenodd" clip-path="url(#clipPath2)" stroke="none"/>
    </g>
    <g text-rendering="geometricPrecision" stroke-miterlimit="1.45" shape-rendering="geometricPrecision" transform="matrix(1,0,0,1,688,491)" stroke-linecap="butt">
      <path fill="none" d="M3.1094 -32 L89 -106 L174.8906 -32 L89 42 Z" fill-rule="evenodd" clip-path="url(#clipPath2)"/>
      <text x="52.8682" xml:space="preserve" y="-34.5312" clip-path="url(#clipPath2)" font-family="sans-serif" stroke="none">Is it foldable</text>
      <text x="41.7266" xml:space="preserve" y="-20.3984" clip-path="url(#clipPath2)" font-family="sans-serif" stroke="none">(like Brompton)?</text>
    </g>
    <g fill="rgb(255,204,0)" text-rendering="geometricPrecision" shape-rendering="geometricPrecision" transform="matrix(1,0,0,1,688,491)" stroke="rgb(255,204,0)">
      <rect x="-16.9727" width="211.9453" height="62" y="118.1013" clip-path="url(#clipPath2)" stroke="none"/>
    </g>
    <g text-rendering="geometricPrecision" stroke-miterlimit="1.45" shape-rendering="geometricPrecision" transform="matrix(1,0,0,1,688,491)" stroke-linecap="butt">
      <rect fill="none" x="-16.9727" width="211.9453" height="62" y="118.1013" clip-path="url(#clipPath2)"/>
      <text x="3.3682" xml:space="preserve" y="146.57" clip-path="url(#clipPath2)" font-family="sans-serif" stroke="none">Your folded bike is a suitcase</text>
      <text x="43.499" xml:space="preserve" y="160.7028" clip-path="url(#clipPath2)" font-family="sans-serif" stroke="none">(if anyone asks)</text>
    </g>
    <g fill="rgb(255,204,0)" text-rendering="geometricPrecision" shape-rendering="geometricPrecision" transform="matrix(1,0,0,1,688,491)" stroke="rgb(255,204,0)">
      <path d="M-324.8906 -32 L-239 -106 L-153.1094 -32 L-239 42 Z" fill-rule="evenodd" clip-path="url(#clipPath2)" stroke="none"/>
    </g>
    <g text-rendering="geometricPrecision" stroke-miterlimit="1.45" shape-rendering="geometricPrecision" transform="matrix(1,0,0,1,688,491)" stroke-linecap="butt">
      <path fill="none" d="M-324.8906 -32 L-239 -106 L-153.1094 -32 L-239 42 Z" fill-rule="evenodd" clip-path="url(#clipPath2)"/>
      <text x="-300.2715" xml:space="preserve" y="-34.5312" clip-path="url(#clipPath2)" font-family="sans-serif" stroke="none">Is your bike electric? </text>
      <text x="-295.2705" xml:space="preserve" y="-20.3984" clip-path="url(#clipPath2)" font-family="sans-serif" stroke="none">Is it visibly electric?</text>
    </g>
    <g fill="rgb(255,204,0)" text-rendering="geometricPrecision" shape-rendering="geometricPrecision" transform="matrix(1,0,0,1,688,491)" stroke="rgb(255,204,0)">
      <rect x="-344.9727" width="211.9453" height="62" y="118.1013" clip-path="url(#clipPath2)" stroke="none"/>
    </g>
    <g text-rendering="geometricPrecision" stroke-miterlimit="1.45" shape-rendering="geometricPrecision" transform="matrix(1,0,0,1,688,491)" stroke-linecap="butt">
      <rect fill="none" x="-344.9727" width="211.9453" height="62" y="118.1013" clip-path="url(#clipPath2)"/>
      <text x="-298.8418" xml:space="preserve" y="146.57" clip-path="url(#clipPath2)" font-family="sans-serif" stroke="none">Expect surcharge of </text>
      <text x="-315.4121" xml:space="preserve" y="160.7028" clip-path="url(#clipPath2)" font-family="sans-serif" stroke="none">3 EUR on the train (CASH)!</text>
    </g>
    <g fill="rgb(255,204,0)" text-rendering="geometricPrecision" shape-rendering="geometricPrecision" transform="matrix(1,0,0,1,688,491)" stroke="rgb(255,204,0)">
      <rect x="-672.9727" width="211.9453" height="62" y="118.1013" clip-path="url(#clipPath2)" stroke="none"/>
    </g>
    <g text-rendering="geometricPrecision" stroke-miterlimit="1.45" shape-rendering="geometricPrecision" transform="matrix(1,0,0,1,688,491)" stroke-linecap="butt">
      <rect fill="none" x="-672.9727" width="211.9453" height="62" y="118.1013" clip-path="url(#clipPath2)"/>
      <text x="-626.8418" xml:space="preserve" y="146.57" clip-path="url(#clipPath2)" font-family="sans-serif" stroke="none">Expect surcharge of </text>
      <text x="-649.1045" xml:space="preserve" y="160.7028" clip-path="url(#clipPath2)" font-family="sans-serif" stroke="none">1,5 EUR on the train (CASH)!</text>
    </g>
    <g fill="rgb(255,204,0)" text-rendering="geometricPrecision" shape-rendering="geometricPrecision" transform="matrix(1,0,0,1,688,491)" stroke="rgb(255,204,0)">
      <rect x="-528.9592" width="247.3296" height="193.5085" y="240.2261" clip-path="url(#clipPath2)" stroke="none"/>
    </g>
    <g text-rendering="geometricPrecision" stroke-miterlimit="1.45" shape-rendering="geometricPrecision" transform="matrix(1,0,0,1,688,491)" stroke-linecap="butt">
      <rect fill="none" x="-528.9592" width="247.3296" height="193.5085" y="240.2261" clip-path="url(#clipPath2)"/>
      <text x="-492.8452" y="263.7851" clip-path="url(#clipPath2)" font-family="sans-serif" stroke="none" font-weight="bold" xml:space="preserve">Look for a train that accepts</text>
      <text x="-490.6391" y="277.9179" clip-path="url(#clipPath2)" font-family="sans-serif" stroke="none" font-weight="bold" xml:space="preserve">bikes - ASK at the counter. </text>
      <text x="-503.3774" y="292.0507" clip-path="url(#clipPath2)" font-family="sans-serif" stroke="none" font-weight="bold" xml:space="preserve">You CANNOT board ICS, but on </text>
      <text x="-500.9135" y="306.1835" clip-path="url(#clipPath2)" font-family="sans-serif" stroke="none" font-weight="bold" xml:space="preserve">other trains this is a matter of </text>
      <text x="-439.7387" y="320.3163" clip-path="url(#clipPath2)" font-family="sans-serif" stroke="none" font-weight="bold" xml:space="preserve">discussion.</text>
      <text x="-407.2719" y="334.4491" clip-path="url(#clipPath2)" font-family="sans-serif" stroke="none" font-weight="bold" xml:space="preserve"> </text>
      <text x="-508.396" y="348.5819" clip-path="url(#clipPath2)" font-family="sans-serif" stroke="none" font-weight="bold" xml:space="preserve">ATTENTION: Room for the bike is</text>
      <text x="-495.9126" y="362.7148" clip-path="url(#clipPath2)" font-family="sans-serif" stroke="none" font-weight="bold" xml:space="preserve">determined only on the train!</text>
      <text x="-495.5698" y="376.8476" clip-path="url(#clipPath2)" font-family="sans-serif" stroke="none" font-weight="bold" xml:space="preserve">Your ride is NOT guaranteed,</text>
      <text x="-514.5103" y="390.9804" clip-path="url(#clipPath2)" font-family="sans-serif" stroke="none" font-weight="bold" xml:space="preserve">that's why there is an extra charge </text>
      <text x="-460.56" y="405.1132" clip-path="url(#clipPath2)" font-family="sans-serif" stroke="none" font-weight="bold" xml:space="preserve">ONLY for the bike</text>
      <text x="-443.3686" y="419.246" clip-path="url(#clipPath2)" font-family="sans-serif" stroke="none" font-weight="bold" xml:space="preserve">on the train!</text>
    </g>
    <g fill="rgb(255,204,0)" text-rendering="geometricPrecision" shape-rendering="geometricPrecision" transform="matrix(1,0,0,1,688,491)" stroke="rgb(255,204,0)">
      <path d="M331.1094 695 L417 621 L502.8906 695 L417 769 Z" fill-rule="evenodd" clip-path="url(#clipPath2)" stroke="none"/>
    </g>
    <g text-rendering="geometricPrecision" stroke-miterlimit="1.45" shape-rendering="geometricPrecision" transform="matrix(1,0,0,1,688,491)" stroke-linecap="butt">
      <path fill="none" d="M331.1094 695 L417 621 L502.8906 695 L417 769 Z" fill-rule="evenodd" clip-path="url(#clipPath2)"/>
      <text x="349.6318" xml:space="preserve" y="692.4688" clip-path="url(#clipPath2)" font-family="sans-serif" stroke="none">Are you buying a ticket</text>
      <text x="385.0371" xml:space="preserve" y="706.6016" clip-path="url(#clipPath2)" font-family="sans-serif" stroke="none">in the app?</text>
    </g>
    <g fill="rgb(255,204,0)" text-rendering="geometricPrecision" shape-rendering="geometricPrecision" transform="matrix(1,0,0,1,688,491)" stroke="rgb(255,204,0)">
      <rect x="311.0273" width="211.9453" height="62" y="892" clip-path="url(#clipPath2)" stroke="none"/>
    </g>
    <g text-rendering="geometricPrecision" stroke-miterlimit="1.45" shape-rendering="geometricPrecision" transform="matrix(1,0,0,1,688,491)" stroke-linecap="butt">
      <rect fill="none" x="311.0273" width="211.9453" height="62" y="892" clip-path="url(#clipPath2)"/>
      <text x="331.4033" xml:space="preserve" y="913.4023" clip-path="url(#clipPath2)" font-family="sans-serif" stroke="none">Copy credit card number into</text>
      <text x="332.9209" xml:space="preserve" y="927.5352" clip-path="url(#clipPath2)" font-family="sans-serif" stroke="none">the app AGAIN (Use Lastpass</text>
      <text x="344.9678" xml:space="preserve" y="941.668" clip-path="url(#clipPath2)" font-family="sans-serif" stroke="none">to speed up the process)</text>
    </g>
    <g fill="rgb(255,204,0)" text-rendering="geometricPrecision" shape-rendering="geometricPrecision" transform="matrix(1,0,0,1,688,491)" stroke="rgb(255,204,0)">
      <rect x="311.0273" width="211.9453" height="62" y="1393" clip-path="url(#clipPath2)" stroke="none"/>
    </g>
    <g text-rendering="geometricPrecision" stroke-miterlimit="1.45" shape-rendering="geometricPrecision" transform="matrix(1,0,0,1,688,491)" stroke-linecap="butt">
      <rect fill="none" x="311.0273" width="211.9453" height="62" y="1393" clip-path="url(#clipPath2)"/>
      <text x="317.2734" xml:space="preserve" y="1407.3359" clip-path="url(#clipPath2)" font-family="sans-serif" stroke="none">When your purchase is successful,</text>
      <text x="318.7471" xml:space="preserve" y="1421.4688" clip-path="url(#clipPath2)" font-family="sans-serif" stroke="none">take a screenshot of the QR code.</text>
      <text x="327.5479" xml:space="preserve" y="1435.6016" clip-path="url(#clipPath2)" font-family="sans-serif" stroke="none">Mobile signal isn't guaranteed </text>
      <text x="382.2334" xml:space="preserve" y="1449.7344" clip-path="url(#clipPath2)" font-family="sans-serif" stroke="none">everywhere.</text>
    </g>
    <g fill="rgb(255,204,0)" text-rendering="geometricPrecision" shape-rendering="geometricPrecision" transform="matrix(1,0,0,1,688,491)" stroke="rgb(255,204,0)">
      <path d="M331.1094 467 L417 393 L502.8906 467 L417 541 Z" fill-rule="evenodd" clip-path="url(#clipPath2)" stroke="none"/>
    </g>
    <g text-rendering="geometricPrecision" stroke-miterlimit="1.45" shape-rendering="geometricPrecision" transform="matrix(1,0,0,1,688,491)" stroke-linecap="butt">
      <path fill="none" d="M331.1094 467 L417 393 L502.8906 467 L417 541 Z" fill-rule="evenodd" clip-path="url(#clipPath2)"/>
      <text x="363.3896" xml:space="preserve" y="457.4023" clip-path="url(#clipPath2)" font-family="sans-serif" stroke="none">Are you a member</text>
      <text x="360.5273" xml:space="preserve" y="471.5352" clip-path="url(#clipPath2)" font-family="sans-serif" stroke="none">of Planinska Zveza?</text>
      <text x="372.6826" xml:space="preserve" y="485.668" clip-path="url(#clipPath2)" font-family="sans-serif" stroke="none">(30% discount!)</text>
    </g>
    <g fill="rgb(255,204,0)" text-rendering="geometricPrecision" shape-rendering="geometricPrecision" transform="matrix(1,0,0,1,688,491)" stroke="rgb(255,204,0)">
      <rect x="303.9863" y="-475.2945" clip-path="url(#clipPath2)" width="226.0273" rx="4" ry="4" height="47" stroke="none"/>
    </g>
    <g text-rendering="geometricPrecision" stroke-miterlimit="1.45" shape-rendering="geometricPrecision" transform="matrix(1,0,0,1,688,491)" stroke-linecap="butt">
      <rect x="303.9863" y="-475.2945" clip-path="url(#clipPath2)" fill="none" width="226.0273" rx="4" ry="4" height="47"/>
      <text x="357.4248" xml:space="preserve" y="-454.3258" clip-path="url(#clipPath2)" font-family="sans-serif" stroke="none">I want to travel with </text>
      <text x="359.0098" xml:space="preserve" y="-440.193" clip-path="url(#clipPath2)" font-family="sans-serif" stroke="none">Slovenske Železnice</text>
      <path fill="none" d="M502.9079 239 L692.5 239 L696.875 239.625 L700 241.5 L701.875 244.625 L702.5 249 L702.5 428" clip-path="url(#clipPath2)"/>
      <path d="M702.5 436 L707.5 424 L702.5 427 L697.5 424 Z" clip-path="url(#clipPath2)" stroke="none"/>
      <text x="652.8665" xml:space="preserve" y="300.7404" clip-path="url(#clipPath2)" font-family="sans-serif" stroke="none">NO</text>
      <path fill="none" d="M331.1162 1173.5 L202.9727 1173.5" clip-path="url(#clipPath2)"/>
      <path d="M194.9727 1173.5 L206.9727 1178.5 L203.9727 1173.5 L206.9727 1168.5 Z" clip-path="url(#clipPath2)" stroke="none"/>
      <text x="253.9473" xml:space="preserve" y="1148.0352" clip-path="url(#clipPath2)" font-family="sans-serif" stroke="none">NO</text>
      <path fill="none" d="M89 1204.5 L89 1385" clip-path="url(#clipPath2)"/>
      <path d="M89 1393 L94 1381 L89 1384 L84 1381 Z" clip-path="url(#clipPath2)" stroke="none"/>
      <path fill="none" d="M89 1455 L89 1907.5 L89.625 1911.875 L91.5 1915 L94.625 1916.875 L99 1917.5 L295.9697 1917.5" clip-path="url(#clipPath2)"/>
      <path d="M303.9697 1917.5 L291.9697 1912.5 L294.9697 1917.5 L291.9697 1922.5 Z" clip-path="url(#clipPath2)" stroke="none"/>
      <path fill="none" d="M702.5 1019.5094 L702.5 1907.5 L701.875 1911.875 L700 1915 L696.875 1916.875 L692.5 1917.5 L538.022 1917.5" clip-path="url(#clipPath2)"/>
      <path d="M530.022 1917.5 L542.022 1922.5 L539.022 1917.5 L542.022 1912.5 Z" clip-path="url(#clipPath2)" stroke="none"/>
      <text x="662.2783" xml:space="preserve" y="1480.0684" clip-path="url(#clipPath2)" font-family="sans-serif" stroke="none">YES</text>
      <path fill="none" d="M702.5 498 L702.5 612.9807" clip-path="url(#clipPath2)"/>
      <path d="M702.5 620.9807 L707.5 608.9807 L702.5 611.9807 L697.5 608.9807 Z" clip-path="url(#clipPath2)" stroke="none"/>
      <path fill="none" d="M702.5 768.9697 L702.5 863.5004" clip-path="url(#clipPath2)"/>
      <path d="M702.5 871.5004 L707.5 859.5004 L702.5 862.5004 L697.5 859.5004 Z" clip-path="url(#clipPath2)" stroke="none"/>
      <text x="662.2783" xml:space="preserve" y="824.7852" clip-path="url(#clipPath2)" font-family="sans-serif" stroke="none">YES</text>
      <path fill="none" d="M788.3568 695 L894.1094 695" clip-path="url(#clipPath2)"/>
      <path d="M902.1094 695 L890.1094 690 L893.1094 695 L890.1094 700 Z" clip-path="url(#clipPath2)" stroke="none"/>
      <text x="836.1562" xml:space="preserve" y="729.5352" clip-path="url(#clipPath2)" font-family="sans-serif" stroke="none">NO</text>
      <path fill="none" d="M788.3568 945.5 L990.1465 945.5 L994.5215 944.875 L997.6465 943 L999.5215 939.875 L1000.1465 935.5 L1000.1465 734" clip-path="url(#clipPath2)"/>
      <path d="M1000.1465 726 L995.1465 738 L1000.1465 735 L1005.1465 738 Z" clip-path="url(#clipPath2)" stroke="none"/>
      <text x="893.2217" xml:space="preserve" y="980.0352" clip-path="url(#clipPath2)" font-family="sans-serif" stroke="none">NO</text>
      <path fill="none" d="M1000.1465 664 L1000.1465 477 L999.5215 472.625 L997.6465 469.5 L994.5215 467.625 L990.1465 467 L785.1816 467" clip-path="url(#clipPath2)"/>
      <path d="M777.1816 467 L789.1816 472 L786.1816 467 L789.1816 462 Z" clip-path="url(#clipPath2)" stroke="none"/>
      <path fill="none" d="M417 1748.5094 L417 1886.0245" clip-path="url(#clipPath2)"/>
      <path d="M417 1894.0245 L422 1882.0245 L417 1885.0245 L412 1882.0245 Z" clip-path="url(#clipPath2)" stroke="none"/>
      <text x="377.9062" xml:space="preserve" y="1825.7852" clip-path="url(#clipPath2)" font-family="sans-serif" stroke="none">NO</text>
      <path fill="none" d="M502.8726 1674.5 L549 1674.5 L553.375 1673.875 L556.5 1672 L558.375 1668.875 L559 1664.5 L559 705 L559.625 700.625 L561.5 697.5 L564.625 695.625 L569 695 L608.6312 695" clip-path="url(#clipPath2)"/>
      <path d="M616.6312 695 L604.6312 690 L607.6312 695 L604.6312 700 Z" clip-path="url(#clipPath2)" stroke="none"/>
      <text x="566.0518" xml:space="preserve" y="1360.3885" clip-path="url(#clipPath2)" font-family="sans-serif" stroke="none">YES</text>
      <path fill="none" d="M417 -228.999 L417 -114.0189" clip-path="url(#clipPath2)"/>
      <path d="M417 -106.0189 L422 -118.0189 L417 -115.0189 L412 -118.0189 Z" clip-path="url(#clipPath2)" stroke="none"/>
      <path fill="none" d="M417 42.0023 L417 156.9816" clip-path="url(#clipPath2)"/>
      <path d="M417 164.9816 L422 152.9816 L417 155.9816 L412 152.9816 Z" clip-path="url(#clipPath2)" stroke="none"/>
      <text x="377.9062" xml:space="preserve" y="108.0352" clip-path="url(#clipPath2)" font-family="sans-serif" stroke="none">NO</text>
      <path fill="none" d="M331.1162 -32 L182.917 -32" clip-path="url(#clipPath2)"/>
      <path d="M174.917 -32 L186.917 -27 L183.917 -32 L186.917 -37 Z" clip-path="url(#clipPath2)" stroke="none"/>
      <text x="242.7783" xml:space="preserve" y="-57.4648" clip-path="url(#clipPath2)" font-family="sans-serif" stroke="none">YES</text>
      <path fill="none" d="M89 41.9703 L89 110.1013" clip-path="url(#clipPath2)"/>
      <path d="M89 118.1013 L94 106.1013 L89 109.1013 L84 106.1013 Z" clip-path="url(#clipPath2)" stroke="none"/>
      <text x="48.7783" xml:space="preserve" y="84.5858" clip-path="url(#clipPath2)" font-family="sans-serif" stroke="none">YES</text>
      <path fill="none" d="M89 180.1013 L89 229 L89.625 233.375 L91.5 236.5 L94.625 238.375 L99 239 L323.1162 239" clip-path="url(#clipPath2)"/>
      <path d="M331.1162 239 L319.1162 234 L322.1162 239 L319.1162 244 Z" clip-path="url(#clipPath2)" stroke="none"/>
      <path fill="none" d="M3.1162 -32 L-145.083 -32" clip-path="url(#clipPath2)"/>
      <path d="M-153.083 -32 L-141.083 -27 L-144.083 -32 L-141.083 -37 Z" clip-path="url(#clipPath2)" stroke="none"/>
      <text x="-84.0938" xml:space="preserve" y="-57.4648" clip-path="url(#clipPath2)" font-family="sans-serif" stroke="none">NO</text>
      <path fill="none" d="M-239 41.9703 L-239 110.1013" clip-path="url(#clipPath2)"/>
      <path d="M-239 118.1013 L-234 106.1013 L-239 109.1013 L-244 106.1013 Z" clip-path="url(#clipPath2)" stroke="none"/>
      <text x="-279.2217" xml:space="preserve" y="84.5858" clip-path="url(#clipPath2)" font-family="sans-serif" stroke="none">YES</text>
      <path fill="none" d="M-324.8838 -32 L-557 -32 L-561.375 -31.375 L-564.5 -29.5 L-566.375 -26.375 L-567 -22 L-567 110.1013" clip-path="url(#clipPath2)"/>
      <path d="M-567 118.1013 L-562 106.1013 L-567 109.1013 L-572 106.1013 Z" clip-path="url(#clipPath2)" stroke="none"/>
      <text x="-604.513" xml:space="preserve" y="-2.5061" clip-path="url(#clipPath2)" font-family="sans-serif" stroke="none">NO</text>
      <path fill="none" d="M-461.0273 149.1013 L-415.2944 149.1013 L-410.9194 149.7263 L-407.7944 151.6013 L-405.9194 154.7263 L-405.2944 159.1013 L-405.2944 232.2261" clip-path="url(#clipPath2)"/>
      <path d="M-405.2944 240.2261 L-400.2944 228.2261 L-405.2944 231.2261 L-410.2944 228.2261 Z" clip-path="url(#clipPath2)" stroke="none"/>
      <path fill="none" d="M-344.9727 149.1013 L-395.2944 149.1013 L-399.6694 149.7263 L-402.7944 151.6013 L-404.6694 154.7263 L-405.2944 159.1013 L-405.2944 232.2261" clip-path="url(#clipPath2)"/>
      <path d="M-405.2944 240.2261 L-400.2944 228.2261 L-405.2944 231.2261 L-410.2944 228.2261 Z" clip-path="url(#clipPath2)" stroke="none"/>
      <path fill="none" d="M-281.6296 336.9804 L79 336.9804 L83.375 336.3554 L86.5 334.4804 L88.375 331.3554 L89 326.9804 L89 249 L89.625 244.625 L91.5 241.5 L94.625 239.625 L99 239 L323.1162 239" clip-path="url(#clipPath2)"/>
      <path d="M331.1162 239 L319.1162 234 L322.1162 239 L319.1162 244 Z" clip-path="url(#clipPath2)" stroke="none"/>
      <path fill="none" d="M331.0864 695 L-98.4232 695 L-102.7982 695.625 L-105.9232 697.5 L-107.7982 700.625 L-108.4232 705 L-108.4232 1414 L-107.7982 1418.375 L-105.9232 1421.5 L-102.7982 1423.375 L-98.4232 1424 L-24.9727 1424" clip-path="url(#clipPath2)"/>
      <path d="M-16.9727 1424 L-28.9727 1419 L-25.9727 1424 L-28.9727 1429 Z" clip-path="url(#clipPath2)" stroke="none"/>
      <text x="94.2025" xml:space="preserve" y="669.5352" clip-path="url(#clipPath2)" font-family="sans-serif" stroke="none">NO</text>
      <path fill="none" d="M417 769.0054 L417 884" clip-path="url(#clipPath2)"/>
      <path d="M417 892 L422 880 L417 883 L412 880 Z" clip-path="url(#clipPath2)" stroke="none"/>
      <text x="376.7783" xml:space="preserve" y="835.0352" clip-path="url(#clipPath2)" font-family="sans-serif" stroke="none">YES</text>
      <path fill="none" d="M417 954 L417 1091.5205" clip-path="url(#clipPath2)"/>
      <path d="M417 1099.5205 L422 1087.5205 L417 1090.5205 L412 1087.5205 Z" clip-path="url(#clipPath2)" stroke="none"/>
      <path fill="none" d="M417 1247.4697 L417 1385" clip-path="url(#clipPath2)"/>
      <path d="M417 1393 L422 1381 L417 1384 L412 1381 Z" clip-path="url(#clipPath2)" stroke="none"/>
      <text x="376.7783" xml:space="preserve" y="1324.7852" clip-path="url(#clipPath2)" font-family="sans-serif" stroke="none">YES</text>
      <path fill="none" d="M417 1455 L417 1592.5205" clip-path="url(#clipPath2)"/>
      <path d="M417 1600.5205 L422 1588.5205 L417 1591.5205 L412 1588.5205 Z" clip-path="url(#clipPath2)" stroke="none"/>
      <path fill="none" d="M417 313.0054 L417 384.9728" clip-path="url(#clipPath2)"/>
      <path d="M417 392.9728 L422 380.9728 L417 383.9728 L412 380.9728 Z" clip-path="url(#clipPath2)" stroke="none"/>
      <text x="376.7783" xml:space="preserve" y="357.5352" clip-path="url(#clipPath2)" font-family="sans-serif" stroke="none">YES</text>
      <path fill="none" d="M502.9079 467 L619.8184 467" clip-path="url(#clipPath2)"/>
      <path d="M627.8184 467 L615.8184 462 L618.8184 467 L615.8184 472 Z" clip-path="url(#clipPath2)" stroke="none"/>
      <text x="555.1328" xml:space="preserve" y="501.5352" clip-path="url(#clipPath2)" font-family="sans-serif" stroke="none">YES</text>
      <path fill="none" d="M331.0897 467 L-99.5824 467 L-103.9574 467.625 L-107.0824 469.5 L-108.9574 472.625 L-109.5824 477 L-109.5824 1414 L-108.9574 1418.375 L-107.0824 1421.5 L-103.9574 1423.375 L-99.5824 1424 L-24.9727 1424" clip-path="url(#clipPath2)"/>
      <path d="M-16.9727 1424 L-28.9727 1419 L-25.9727 1424 L-28.9727 1429 Z" clip-path="url(#clipPath2)" stroke="none"/>
      <text x="91.931" xml:space="preserve" y="441.5352" clip-path="url(#clipPath2)" font-family="sans-serif" stroke="none">YES</text>
      <path fill="none" d="M417 541.0054 L417 612.9728" clip-path="url(#clipPath2)"/>
      <path d="M417 620.9728 L422 608.9728 L417 611.9728 L412 608.9728 Z" clip-path="url(#clipPath2)" stroke="none"/>
      <text x="377.9062" xml:space="preserve" y="585.5352" clip-path="url(#clipPath2)" font-family="sans-serif" stroke="none">NO</text>
      <path fill="none" d="M417 -428.3079 L417 -313.2734" clip-path="url(#clipPath2)"/>
      <path d="M417 -305.2734 L422 -317.2734 L417 -314.2734 L412 -317.2734 Z" clip-path="url(#clipPath2)" stroke="none"/>
    </g>
  </g>
</svg>
